<svg xmlns="http://www.w3.org/2000/svg" viewBox="0 0 512 512" width="512" height="512">
  <defs>
    <linearGradient id="bg" x1="0" y1="0" x2="1" y2="1">
      <stop offset="0" stop-color="#f57c1f"/>
      <stop offset="1" stop-color="#bf360c"/>
    </linearGradient>
  </defs>
  <!-- Fuld-bleed baggrund (maskable-sikker) -->
  <rect width="512" height="512" fill="url(#bg)"/>
  <!-- Stiliseret muslingeskal (Camino-symbolet) -->
  <g>
    <path d="M140 202
             Q159 178 178 202 Q197 178 217 202 Q236 178 256 202
             Q275 178 294 202 Q314 178 333 202 Q352 178 372 202
             Q300 302 256 356 Q212 302 140 202 Z"
          fill="#ffe9d0" stroke="#fff3e6" stroke-width="4" stroke-linejoin="round"/>
    <g stroke="#e0762a" stroke-width="8" stroke-linecap="round">
      <line x1="256" y1="352" x2="140" y2="202"/>
      <line x1="256" y1="352" x2="178" y2="202"/>
      <line x1="256" y1="352" x2="217" y2="202"/>
      <line x1="256" y1="352" x2="256" y2="200"/>
      <line x1="256" y1="352" x2="294" y2="202"/>
      <line x1="256" y1="352" x2="333" y2="202"/>
      <line x1="256" y1="352" x2="372" y2="202"/>
    </g>
    <circle cx="256" cy="352" r="13" fill="#e0762a"/>
  </g>
</svg>
